<svg width="36" height="36" viewBox="0 0 36 36" fill="none" xmlns="http://www.w3.org/2000/svg">
<g clip-path="url(#clip0_1295_1114)">
<circle cx="18" cy="18" r="17" fill="#EEEEEE" stroke="#AAAAAA" stroke-width="2"/>
<mask id="path-2-inside-1_1295_1114" fill="white">
<path fill-rule="evenodd" clip-rule="evenodd" d="M4.5 29.9062V29.25C4.5 24.7612 13.4944 22.5 18 22.5C22.5056 22.5 31.5 24.7612 31.5 29.25V29.9062C28.2017 33.6431 23.3761 36 18 36C12.6239 36 7.79825 33.6431 4.5 29.9062ZM18 7.5C14.2706 7.5 11.25 10.5206 11.25 14.25C11.25 17.9794 14.2706 21 18 21C21.7294 21 24.75 17.9794 24.75 14.25C24.75 10.5206 21.7294 7.5 18 7.5Z"/>
</mask>
<path fill-rule="evenodd" clip-rule="evenodd" d="M4.5 29.9062V29.25C4.5 24.7612 13.4944 22.5 18 22.5C22.5056 22.5 31.5 24.7612 31.5 29.25V29.9062C28.2017 33.6431 23.3761 36 18 36C12.6239 36 7.79825 33.6431 4.5 29.9062ZM18 7.5C14.2706 7.5 11.25 10.5206 11.25 14.25C11.25 17.9794 14.2706 21 18 21C21.7294 21 24.75 17.9794 24.75 14.25C24.75 10.5206 21.7294 7.5 18 7.5Z" fill="#EEEEEE"/>
<path d="M4.5 29.9062H2.5V30.6626L3.00052 31.2297L4.5 29.9062ZM31.5 29.9062L32.9995 31.2297L33.5 30.6626V29.9062H31.5ZM6.5 29.9062V29.25H2.5V29.9062H6.5ZM6.5 29.25C6.5 28.8624 6.6783 28.3749 7.33223 27.7713C7.99974 27.1552 9.02029 26.5626 10.3041 26.0483C12.875 25.0184 15.9972 24.5 18 24.5V20.5C15.4972 20.5 11.8693 21.1122 8.81665 22.3351C7.28869 22.9472 5.77905 23.7616 4.61932 24.8319C3.446 25.9148 2.5 27.3932 2.5 29.25H6.5ZM18 24.5C20.0028 24.5 23.125 25.0184 25.6959 26.0483C26.9797 26.5626 28.0003 27.1552 28.6678 27.7713C29.3217 28.3749 29.5 28.8624 29.5 29.25H33.5C33.5 27.3932 32.554 25.9148 31.3807 24.8319C30.221 23.7616 28.7113 22.9472 27.1834 22.3351C24.1307 21.1122 20.5028 20.5 18 20.5V24.5ZM29.5 29.25V29.9062H33.5V29.25H29.5ZM30.0005 28.5827C27.0658 31.9077 22.7785 34 18 34V38C23.9737 38 29.3377 35.3785 32.9995 31.2297L30.0005 28.5827ZM18 34C13.2215 34 8.93418 31.9077 5.99948 28.5827L3.00052 31.2297C6.66232 35.3785 12.0263 38 18 38V34ZM13.25 14.25C13.25 11.6252 15.3752 9.5 18 9.5V5.5C13.1661 5.5 9.25 9.41605 9.25 14.25H13.25ZM18 19C15.3752 19 13.25 16.8748 13.25 14.25H9.25C9.25 19.0839 13.1661 23 18 23V19ZM22.75 14.25C22.75 16.8748 20.6248 19 18 19V23C22.8339 23 26.75 19.0839 26.75 14.25H22.75ZM18 9.5C20.6248 9.5 22.75 11.6252 22.75 14.25H26.75C26.75 9.41606 22.8339 5.5 18 5.5V9.5Z" fill="#AAAAAA" mask="url(#path-2-inside-1_1295_1114)"/>
</g>
<defs>
<clipPath id="clip0_1295_1114">
<rect width="36" height="36" fill="white"/>
</clipPath>
</defs>
</svg>
