<svg width="24" height="24" viewBox="0 0 24 24" fill="none" xmlns="http://www.w3.org/2000/svg">
<path fill-rule="evenodd" clip-rule="evenodd" d="M2.6995 3.9455C3.8425 2.69 5.4745 2 7.39 2C9.136 2 11.0005 2.825 12.25 4.439C13.492 2.8265 15.349 2 17.11 2C19.021 2 20.65 2.687 21.796 3.9395C22.93 5.1815 23.5 6.8825 23.5 8.7695C23.5 12.0185 21.8305 14.633 19.717 16.6655C17.6095 18.6935 14.962 20.24 12.7675 21.3755C12.6068 21.4586 12.4283 21.5018 12.2474 21.5013C12.0664 21.5007 11.8883 21.4566 11.728 21.3725C9.5335 20.225 6.886 18.6905 4.7785 16.673C2.665 14.6465 1 12.041 1 8.771C1 6.8885 1.567 5.1875 2.6995 3.9455ZM4.363 5.4605C3.6805 6.2105 3.25 7.331 3.25 8.771C3.25 11.207 4.474 13.265 6.3355 15.047C8.0545 16.694 10.2355 18.0245 12.253 19.1045C14.2555 18.0395 16.438 16.6985 18.1585 15.044C20.023 13.2485 21.25 11.1815 21.25 8.771C21.25 7.3265 20.818 6.206 20.134 5.456C19.462 4.7225 18.46 4.2515 17.11 4.2515C15.646 4.2515 13.9705 5.1935 13.3195 7.1765C13.2459 7.40213 13.1028 7.59869 12.9107 7.73807C12.7186 7.87745 12.4873 7.95251 12.25 7.95251C12.0127 7.95251 11.7814 7.87745 11.5893 7.73807C11.3972 7.59869 11.2541 7.40213 11.1805 7.1765C10.531 5.1965 8.8375 4.2515 7.39 4.2515C6.0355 4.2515 5.035 4.7225 4.363 5.4605Z" fill="#6F6F6F"/>
</svg>
