<svg width="24" height="24" viewBox="0 0 24 24" fill="none" xmlns="http://www.w3.org/2000/svg">
<path d="M7.70008 6.3C7.51148 6.11784 7.25888 6.01705 6.99668 6.01932C6.73449 6.0216 6.48367 6.12677 6.29826 6.31218C6.11286 6.49759 6.00769 6.7484 6.00541 7.0106C6.00313 7.27279 6.10392 7.5254 6.28608 7.714L10.5861 12.014L6.28608 16.314C6.10392 16.5026 6.00313 16.7552 6.00541 17.0174C6.00769 17.2796 6.11286 17.5304 6.29826 17.7158C6.48367 17.9012 6.73449 18.0064 6.99668 18.0087C7.25888 18.011 7.51148 17.9102 7.70008 17.728L12.0001 13.428L16.3001 17.728C16.4887 17.9102 16.7413 18.011 17.0035 18.0087C17.2657 18.0064 17.5165 17.9012 17.7019 17.7158C17.8873 17.5304 17.9925 17.2796 17.9948 17.0174C17.997 16.7552 17.8962 16.5026 17.7141 16.314L13.4141 12.014L17.7141 7.714C17.8962 7.5254 17.997 7.27279 17.9948 7.0106C17.9925 6.7484 17.8873 6.49759 17.7019 6.31218C17.5165 6.12677 17.2657 6.0216 17.0035 6.01932C16.7413 6.01705 16.4887 6.11784 16.3001 6.3L12.0001 10.6L7.70008 6.3Z" fill="black"/>
</svg>
