<svg width="39" height="40" viewBox="0 0 39 40" fill="none" xmlns="http://www.w3.org/2000/svg">
<path d="M25.4604 30.3375C29.342 29.8779 33.1559 28.9619 36.8228 27.6083C33.7174 24.1683 32.0014 19.6969 32.0083 15.0625V13.5C32.0083 10.1848 30.6913 7.00537 28.3471 4.66117C26.0029 2.31696 22.8235 1 19.5083 1C16.1931 1 13.0136 2.31696 10.6694 4.66117C8.32523 7.00537 7.00827 10.1848 7.00827 13.5V15.0625C7.01455 19.6971 5.29782 24.1687 2.1916 27.6083C5.80202 28.9417 9.60827 29.8687 13.5562 30.3375M25.4604 30.3375C21.5062 30.8065 17.5104 30.8065 13.5562 30.3375M25.4604 30.3375C25.7606 31.2747 25.8352 32.2696 25.6782 33.2411C25.5213 34.2126 25.1371 35.1333 24.557 35.9283C23.9769 36.7232 23.2172 37.37 22.3399 37.8159C21.4626 38.2617 20.4924 38.4941 19.5083 38.4941C18.5241 38.4941 17.5539 38.2617 16.6766 37.8159C15.7993 37.37 15.0397 36.7232 14.4596 35.9283C13.8795 35.1333 13.4953 34.2126 13.3383 33.2411C13.1813 32.2696 13.256 31.2747 13.5562 30.3375M1.0166 10.375C1.60404 6.88535 3.17034 3.63426 5.53327 1M33.4833 1C35.8462 3.63426 37.4125 6.88535 37.9999 10.375" stroke="black" stroke-width="1.5" stroke-linecap="round" stroke-linejoin="round"/>
</svg>
