<svg width="24" height="24" viewBox="0 0 24 24" fill="none" xmlns="http://www.w3.org/2000/svg">
<path d="M6.97143 11.6595C6.97143 11.3568 7.02222 11.0036 7.12381 10.6C7.2254 10.1459 7.45397 9.64144 7.80952 9.08648C8.21587 8.48108 8.59683 8.0018 8.95238 7.64865C9.30794 7.24505 9.79048 6.81622 10.4 6.36216C10.6032 6.21081 10.7556 6.05946 10.8571 5.90811C11.0095 5.7063 11.0095 5.5045 10.8571 5.3027L10.781 5.22702C10.5778 5.07567 10.3492 5 10.0952 5C9.84127 5 9.63809 5.05045 9.48571 5.15135C9.23175 5.3027 8.95238 5.47928 8.64762 5.68108C8.34286 5.83243 8.03809 6.03423 7.73333 6.28648C7.37778 6.53874 7.02222 6.84144 6.66667 7.19459C6.3619 7.4973 6.08254 7.85045 5.82857 8.25405C5.21905 9.16216 4.7619 10.0955 4.45714 11.0541C4.15238 12.0126 4 12.9459 4 13.8541C4 15.2162 4.35556 16.427 5.06667 17.4865C5.82857 18.4955 6.94603 19 8.41905 19C9.33333 19 10.146 18.6721 10.8571 18.0162C11.619 17.3604 12 16.5279 12 15.5189C12 14.6108 11.6698 13.7784 11.0095 13.0216C10.3492 12.2144 9.5619 11.8108 8.64762 11.8108C8.59682 11.8108 8.41905 11.8613 8.11428 11.9622C7.86032 12.0126 7.65714 12.0378 7.50476 12.0378C7.25079 12.0883 7.09841 12.0883 7.04762 12.0378C6.99683 11.9369 6.97143 11.8108 6.97143 11.6595Z" fill="#6F6F6F"/>
<path fill-rule="evenodd" clip-rule="evenodd" d="M13.0027 17.5887C13.3862 17.0403 13.578 16.4005 13.578 15.6693C13.578 14.7482 13.2524 13.9039 12.6013 13.1363C12.4439 12.9384 12.2792 12.7644 12.1072 12.6144C12.1823 12.1298 12.2968 11.6386 12.4507 11.1406C12.7512 10.1683 13.202 9.22166 13.8031 8.30058C14.0535 7.8912 14.329 7.533 14.6296 7.22597C14.9802 6.86777 15.3308 6.56073 15.6814 6.30488C15.982 6.04902 16.2825 5.84433 16.583 5.69082C16.8836 5.48613 17.159 5.30703 17.4095 5.15351C17.5597 5.05117 17.7601 5 18.0105 5C18.261 5 18.4864 5.07676 18.6867 5.23027L18.7619 5.30703C18.9121 5.51172 18.9121 5.7164 18.7619 5.92109C18.6617 6.07461 18.5114 6.22812 18.3111 6.38163C17.71 6.84218 17.2342 7.27714 16.8836 7.68651C16.5329 8.04472 16.1573 8.53085 15.7566 9.14491C15.4059 9.7078 15.1805 10.2195 15.0804 10.6801C14.9802 11.0894 14.9301 11.4476 14.9301 11.7547C14.9301 11.9082 14.9551 12.0361 15.0052 12.1385C15.0553 12.1896 15.2056 12.1896 15.456 12.1385C15.6063 12.1385 15.8066 12.1129 16.0571 12.0617C16.3576 11.9594 16.5329 11.9082 16.583 11.9082C17.4846 11.9082 18.261 12.3176 18.9121 13.1363C19.5633 13.9039 19.8889 14.7482 19.8889 15.6693C19.8889 16.6927 19.5132 17.5371 18.7619 18.2023C18.0606 18.8675 17.2592 19.2002 16.3576 19.2002C14.905 19.2002 13.8031 18.6884 13.0518 17.665C13.0352 17.6396 13.0189 17.6142 13.0027 17.5887Z" fill="#6F6F6F"/>
</svg>
