<svg width="40" height="40" viewBox="0 0 40 40" fill="none" xmlns="http://www.w3.org/2000/svg">
<path d="M13.7979 30.3467C16.455 30.6614 19.1329 30.7645 21.8062 30.6551M13.7979 30.3467C9.91557 29.8871 6.101 28.9711 2.43333 27.6176C5.30947 24.4337 7.00154 20.3565 7.225 16.0717M13.7979 30.3467C13.2743 31.9071 13.3874 33.6111 14.1125 35.0886C14.8377 36.5661 16.1164 37.698 17.671 38.2384C19.2257 38.7789 20.9307 38.6842 22.416 37.9751C23.9013 37.266 25.047 35.9996 25.6042 34.4509M29.6979 29.7071L38.5 38.5092M29.6979 29.7071C32.2036 29.2015 34.6665 28.5029 37.0646 27.6176C33.9591 24.1776 32.2431 19.7061 32.25 15.0717V13.5092C32.2521 10.6495 31.2736 7.87553 29.4777 5.65005C27.6818 3.42457 25.1771 1.88217 22.3815 1.28014C19.5859 0.678118 16.6683 1.05288 14.1156 2.34191C11.5629 3.63093 9.52931 5.75628 8.35417 8.36339M29.6979 29.7071L8.35417 8.36339M8.35417 8.36339L1 1.00923" stroke="black" stroke-width="1.5" stroke-linecap="round" stroke-linejoin="round"/>
</svg>
