<svg width="20" height="20" viewBox="0 0 20 20" fill="none" xmlns="http://www.w3.org/2000/svg">
<circle cx="10" cy="10" r="9.95" fill="white" stroke="black" stroke-width="0.1"/>
<path d="M8.57144 6.74219C8.32446 6.74219 8.12012 6.97214 8.12012 7.25007V13.2469C8.12012 13.5248 8.32446 13.7585 8.57144 13.7585H9.09296C9.33994 13.7585 9.54762 13.5248 9.54762 13.2469V7.25007C9.54762 6.97214 9.33994 6.74219 9.09296 6.74219H8.57144Z" fill="#DBA147"/>
<path d="M6.45466 6.0498C6.20768 6.0498 6 6.28352 6 6.56145V13.2467C6 13.5246 6.20768 13.7583 6.45466 13.7583H8.11952C8.3665 13.7583 8.57084 13.5246 8.57084 13.2467V6.56145C8.57084 6.28352 8.3665 6.0498 8.11952 6.0498H6.45466Z" fill="#CA7D73"/>
<path d="M9.54743 5.00049C9.30048 5.00049 9.09277 5.2342 9.09277 5.51213V13.247C9.09277 13.5249 9.30046 13.7586 9.54743 13.7586H10.5336C10.7806 13.7586 10.985 13.5249 10.985 13.247V5.51213C10.985 5.2342 10.7806 5.00049 10.5336 5.00049H9.54743Z" fill="#82C1A0"/>
<path d="M10.9038 6.50066C10.6655 6.57386 10.522 6.8563 10.5869 7.12446L12.1591 13.626C12.2239 13.8941 12.4747 14.0554 12.713 13.9822L13.6644 13.69C13.9026 13.6168 14.0493 13.3334 13.9845 13.0652L12.4123 6.56374C12.3475 6.29557 12.0934 6.1352 11.8552 6.20839L10.9038 6.50066Z" fill="#828AD3"/>
<path d="M6 7.14844V7.4005V7.5548V8.05892V8.46523H8.57084V8.05892V7.5548V7.1485L6 7.14844Z" fill="#F46C6C"/>
<path d="M6 11.6028V11.8586V12.0129V12.517V12.9233H8.57084V12.517V12.0129V11.6028L6 11.6028Z" fill="#F46C6C"/>
<path d="M9.09375 12.5811V12.8359V13.2489C9.09375 13.5269 9.29967 13.7586 9.54663 13.7586H10.5329C10.7798 13.7586 10.9858 13.5269 10.9858 13.2489V12.5811H9.09375Z" fill="#BBAE88"/>
<path d="M9.54663 5.00195C9.29967 5.00195 9.09375 5.23367 9.09375 5.5116V6.27401H10.9858V5.5116C10.9858 5.23367 10.7799 5.00195 10.5329 5.00195H9.54663Z" fill="#BBAE88"/>
<path d="M9.54696 5C9.30001 5 9.09231 5.23371 9.09231 5.51165V5.76347V6.74197H8.57132V6.56186C8.57132 6.28393 8.36719 6.05021 8.12021 6.05021H6.45465C6.20767 6.05014 6 6.28387 6 6.5618V7.65669V7.9573V12.1141V12.4157V13.2468C6 13.5247 6.20767 13.7585 6.45465 13.7585H8.12021C8.20366 13.7585 8.2774 13.7249 8.34488 13.6789C8.41251 13.7251 8.48761 13.7585 8.57132 13.7585H9.09231C9.17611 13.7585 9.25146 13.7242 9.31963 13.6777C9.33777 13.6893 9.35223 13.708 9.37182 13.7176C9.42602 13.7438 9.48521 13.7585 9.54696 13.7585H10.5332C10.7802 13.7585 10.9852 13.5247 10.9852 13.2468V13.0925V8.7705L12.159 13.626C12.2238 13.8942 12.4744 14.0555 12.7127 13.9824L13.6644 13.6897C13.9027 13.6165 14.0495 13.3328 13.9846 13.0646L12.4119 6.56374C12.3471 6.29557 12.0938 6.13522 11.8556 6.2084L10.9852 6.47515V5.76347V5.51165C10.9852 5.23371 10.7802 5 10.5332 5H9.54696ZM9.54696 5.51165H10.5332V5.76347H9.54696V5.51165ZM9.54696 6.27512H10.5332V12.5809H9.54696V7.24962V6.27512ZM6.45465 6.5618H8.12021V7.1481H6.45465V6.5618ZM11.9741 6.69817L13.5459 13.2L12.5942 13.4917L11.0224 6.9908L11.9741 6.69817ZM8.57132 7.24962H9.09231V13.2468H8.57132V7.24962ZM6.45465 7.65669H8.12021V7.9573H6.45465V7.65669ZM6.45465 8.46495H8.12021V11.6024H6.45465V8.46495ZM6.45465 12.1141H8.12021V12.4157H6.45465V12.1141ZM6.45465 12.9233H8.12021V13.2468H6.45465V12.9233ZM9.54696 13.0924H10.5332V13.2467H9.54696V13.0924Z" fill="url(#paint0_linear_370_11048)"/>
<defs>
<linearGradient id="paint0_linear_370_11048" x1="6.0283" y1="5.07254" x2="14.9828" y2="12.8997" gradientUnits="userSpaceOnUse">
<stop/>
<stop offset="1"/>
</linearGradient>
</defs>
</svg>
