<svg width="111" height="42" viewBox="0 0 111 42" fill="none" xmlns="http://www.w3.org/2000/svg">
<path d="M51.292 4.98C52.012 4.764 52.564 4.836 52.948 5.196C53.332 5.556 53.596 6.252 53.74 7.284C53.812 7.836 53.896 8.184 53.992 8.328C54.112 8.448 54.364 8.544 54.748 8.616C55.324 8.712 55.732 8.916 55.972 9.228C56.212 9.54 56.332 10.044 56.332 10.74C56.332 11.22 56.272 11.556 56.152 11.748C56.056 11.94 55.72 12.348 55.144 12.972C54.688 13.476 54.424 13.824 54.352 14.016C54.28 14.208 54.34 14.4 54.532 14.592C54.916 15.024 55.456 15.756 56.152 16.788C56.704 17.58 56.584 18.36 55.792 19.128C55.384 19.512 54.952 19.668 54.496 19.596C54.064 19.524 53.548 19.2 52.948 18.624C52.324 18.048 51.928 17.76 51.76 17.76C51.616 17.736 51.328 17.952 50.896 18.408C49.624 19.8 48.448 19.968 47.368 18.912C46.936 18.48 46.816 17.976 47.008 17.4C47.224 16.8 47.848 15.888 48.88 14.664C49.024 14.472 49.276 14.136 49.636 13.656L50.248 12.864L49.24 12.828C48.592 12.828 48.124 12.768 47.836 12.648C47.572 12.504 47.344 12.24 47.152 11.856C46.816 11.184 46.804 10.536 47.116 9.912C47.428 9.288 47.932 8.928 48.628 8.832C48.82 8.808 49.096 8.772 49.456 8.724L49.888 8.688V7.716C49.888 6.204 50.356 5.292 51.292 4.98ZM63.784 5.376C64.264 5.208 64.72 5.22 65.152 5.412C65.584 5.604 65.92 5.94 66.16 6.42C66.28 6.636 66.352 8.652 66.376 12.468C66.424 16.26 66.4 18.456 66.304 19.056C66.184 19.8 65.764 20.328 65.044 20.64C64.348 20.952 63.76 20.88 63.28 20.424C62.944 20.064 62.728 19.716 62.632 19.38C62.536 19.044 62.476 18.36 62.452 17.328C62.404 16.152 62.356 15.456 62.308 15.24C62.26 15 62.14 14.88 61.948 14.88C61.732 14.88 61.612 14.952 61.588 15.096C61.42 15.864 61.336 16.74 61.336 17.724C61.336 18.276 61.24 18.792 61.048 19.272C60.856 19.728 60.652 19.956 60.436 19.956C60.34 19.956 60.292 19.992 60.292 20.064C60.292 20.112 60.076 20.136 59.644 20.136C58.396 20.136 57.7 19.392 57.556 17.904C57.46 17.04 57.412 15.204 57.412 12.396C57.412 9.564 57.448 8.028 57.52 7.788C57.688 7.284 58.012 6.876 58.492 6.564C58.972 6.252 59.44 6.144 59.896 6.24C60.064 6.264 60.316 6.42 60.652 6.708C60.988 6.972 61.156 7.164 61.156 7.284C61.156 7.356 61.18 7.452 61.228 7.572C61.3 7.692 61.408 8.76 61.552 10.776C61.552 10.92 61.564 11.016 61.588 11.064C61.636 11.088 61.756 11.1 61.948 11.1H62.308L62.38 9.444C62.428 8.028 62.548 7.044 62.74 6.492C62.932 5.916 63.28 5.544 63.784 5.376ZM55.396 21.972C55.468 21.9 56.728 21.876 59.176 21.9C61.648 21.924 62.968 21.972 63.136 22.044C63.664 22.284 64.012 22.86 64.18 23.772C64.348 24.66 64.432 26.34 64.432 28.812C64.408 30.468 64.36 31.464 64.288 31.8C64.216 32.136 63.976 32.448 63.568 32.736H63.532C62.836 33.24 62.188 33.468 61.588 33.42C61.012 33.372 60.556 33.036 60.22 32.412C60.1 32.22 60.028 31.98 60.004 31.692C60.004 31.404 59.992 30.492 59.968 28.956V25.896L58.384 25.86C57.304 25.836 56.5 25.86 55.972 25.932C55.228 26.028 54.04 26.076 52.408 26.076C50.8 26.076 49.9 26.028 49.708 25.932C49.54 25.836 49.36 25.668 49.168 25.428C48.976 25.188 48.88 25.02 48.88 24.924C48.88 24.804 48.844 24.72 48.772 24.672C48.628 24.6 48.604 24.348 48.7 23.916C48.796 23.484 48.952 23.172 49.168 22.98C49.48 22.692 49.9 22.5 50.428 22.404C50.98 22.284 52 22.188 53.488 22.116C54.736 22.044 55.372 21.996 55.396 21.972ZM82.1699 7.716C82.2179 7.668 82.5179 7.656 83.0699 7.68C83.6219 7.704 84.0179 7.752 84.2579 7.824C85.1699 8.064 85.7459 8.616 85.9859 9.48C86.1059 9.96 86.2019 11.388 86.2739 13.764C86.3459 16.14 86.3339 17.508 86.2379 17.868C86.0459 18.516 85.7099 18.996 85.2299 19.308C84.7499 19.62 84.2459 19.704 83.7179 19.56C83.2139 19.416 82.8179 19.056 82.5299 18.48C82.3859 18.216 82.3019 17.94 82.2779 17.652C82.2539 17.364 82.2419 16.488 82.2419 15.024C82.2419 14.88 82.2419 14.7 82.2419 14.484C82.2179 13.116 82.1699 12.324 82.0979 12.108C82.0499 11.868 81.8339 11.772 81.4499 11.82C81.3779 11.82 81.3299 11.832 81.3059 11.856C80.8739 11.88 80.3219 11.904 79.6499 11.928H78.6779L78.5339 13.584C78.3899 15.816 78.1859 17.352 77.9219 18.192C77.6819 19.008 77.2379 19.548 76.5899 19.812C75.9179 20.1 75.2099 19.884 74.4659 19.164C74.2499 18.948 74.1059 18.396 74.0339 17.508C73.9859 16.596 74.0219 15.648 74.1419 14.664C74.1899 14.184 74.2499 13.668 74.3219 13.116C74.3699 12.564 74.4179 12.204 74.4659 12.036C74.4899 11.892 74.4179 11.82 74.2499 11.82C74.1299 11.796 73.7579 11.796 73.1339 11.82C72.2219 11.844 71.5979 11.748 71.2619 11.532C70.9499 11.292 70.7579 10.836 70.6859 10.164C70.5899 9.276 70.9019 8.676 71.6219 8.364C72.3659 8.028 73.7699 7.86 75.8339 7.86C76.7219 7.86 77.2739 7.884 77.4899 7.932C77.7299 7.98 77.9579 8.1 78.1739 8.292C78.3179 8.412 78.4019 8.484 78.4259 8.508C78.4739 8.508 78.5579 8.448 78.6779 8.328C78.9179 8.088 79.6619 7.932 80.9099 7.86C81.7259 7.812 82.1459 7.764 82.1699 7.716ZM79.1099 18.876C79.3979 18.66 79.7219 18.588 80.0819 18.66C80.4659 18.732 80.8139 18.924 81.1259 19.236C81.5819 19.692 81.8099 20.952 81.8099 23.016C81.8099 23.76 81.8339 24.456 81.8819 25.104L81.9539 25.968H84.2219C85.5179 25.968 86.3579 25.992 86.7419 26.04C87.1259 26.088 87.4499 26.232 87.7139 26.472C88.1939 26.88 88.4219 27.384 88.3979 27.984C88.3979 28.56 88.1459 29.076 87.6419 29.532C87.3299 29.844 86.9699 30.024 86.5619 30.072C86.1539 30.144 85.0139 30.18 83.1419 30.18C79.2779 30.18 76.7459 30.264 75.5459 30.432C75.2099 30.504 74.3819 30.552 73.0619 30.576C71.7899 30.576 70.9259 30.432 70.4699 30.144C70.0379 29.856 69.8219 29.292 69.8219 28.452C69.8219 27.732 70.0739 27.264 70.5779 27.048C71.0819 26.808 72.2099 26.628 73.9619 26.508C75.8579 26.388 77.0579 26.244 77.5619 26.076C77.7539 26.004 77.8979 25.056 77.9939 23.232C78.0659 21.264 78.1619 20.244 78.2819 20.172C78.3299 20.148 78.3539 20.076 78.3539 19.956C78.3539 19.812 78.4259 19.632 78.5699 19.416C78.7379 19.176 78.9179 18.996 79.1099 18.876ZM105.009 8.292C105.585 7.956 106.149 7.908 106.701 8.148C107.253 8.364 107.577 8.784 107.673 9.408C107.697 9.552 107.733 12.384 107.781 17.904C107.829 23.424 107.841 26.7 107.816 27.732C107.793 28.908 107.385 29.664 106.593 30C105.465 30.456 104.625 29.94 104.073 28.452C103.905 27.924 103.785 24.924 103.713 19.452C103.665 13.98 103.725 10.86 103.893 10.092C104.037 9.516 104.169 9.12 104.289 8.904C104.409 8.688 104.649 8.484 105.009 8.292ZM96.9445 10.524C97.1845 10.476 97.7245 10.464 98.5645 10.488C99.4285 10.512 99.9205 10.548 100.041 10.596C100.353 10.788 100.617 11.076 100.833 11.46C101.073 11.82 101.193 12.204 101.193 12.612C101.217 12.948 101.145 13.2 100.977 13.368C100.809 13.512 100.365 13.752 99.6445 14.088C99.1885 14.304 98.8645 14.556 98.6725 14.844C98.5045 15.132 98.3125 15.72 98.0965 16.608C97.9525 17.304 97.8445 17.736 97.7725 17.904C97.5805 18.408 97.6885 18.948 98.0965 19.524C98.3845 19.908 98.5285 20.136 98.5285 20.208C98.5285 20.28 98.5525 20.316 98.6005 20.316C98.6485 20.316 98.7205 20.4 98.8165 20.568C98.8645 20.712 99.2125 21.24 99.8605 22.152C100.437 22.968 100.761 23.472 100.833 23.664C100.929 23.856 100.977 24.12 100.977 24.456C100.977 25.08 100.797 25.488 100.437 25.68C100.341 25.752 100.269 25.824 100.221 25.896C99.8125 26.28 99.2725 26.304 98.6005 25.968C97.9285 25.608 97.1845 24.912 96.3685 23.88C95.6245 22.968 95.2525 22.752 95.2525 23.232C95.2525 23.352 95.2285 23.472 95.1805 23.592C95.1085 23.712 95.0365 23.856 94.9645 24.024C93.9805 26.28 92.6245 26.844 90.8965 25.716C90.0085 25.14 90.0925 23.976 91.1485 22.224C91.3885 21.84 91.5085 21.624 91.5085 21.576C91.5085 21.528 91.5685 21.432 91.6885 21.288C91.8325 21.072 92.0725 20.628 92.4085 19.956C92.7685 19.26 93.0085 18.744 93.1285 18.408C93.3445 17.928 93.4645 17.652 93.4885 17.58C93.5365 17.484 93.5605 17.388 93.5605 17.292C93.5605 17.196 93.5965 17.088 93.6685 16.968C93.7165 16.848 93.8005 16.536 93.9205 16.032C94.0645 15.528 94.1365 15.204 94.1365 15.06C94.1365 14.964 94.0885 14.916 93.9925 14.916C93.8965 14.892 93.5725 14.892 93.0205 14.916C92.2045 14.964 91.6405 14.928 91.3285 14.808C91.0405 14.688 90.7765 14.4 90.5365 13.944C90.2485 13.416 90.1525 12.912 90.2485 12.432C90.3445 11.928 90.6205 11.568 91.0765 11.352C91.3645 11.208 91.6525 11.112 91.9405 11.064C92.2525 11.016 93.3445 10.908 95.2165 10.74C96.2725 10.62 96.8485 10.548 96.9445 10.524Z" fill="black"/>
<path d="M12.8554 8.12976C11.6205 8.12976 10.5988 9.20287 10.5988 10.4999V38.4849C10.5988 39.7819 11.6205 40.8725 12.8554 40.8725H15.463C16.6979 40.8725 17.7363 39.7819 17.7363 38.4849V10.4999C17.7363 9.20287 16.6979 8.12976 15.463 8.12976H12.8554Z" fill="#DBA147"/>
<path d="M2.27444 4.89954C1.03955 4.89954 0.00112915 5.9902 0.00112915 7.28721V38.485C0.00112915 39.782 1.03955 40.8727 2.27444 40.8727H10.5988C11.8336 40.8727 12.8553 39.782 12.8553 38.485V7.28721C12.8553 5.9902 11.8336 4.89954 10.5988 4.89954H2.27444Z" fill="#CA7D73"/>
<path d="M17.7363 0.00109863C16.5016 0.00109863 15.463 1.09177 15.463 2.38878V38.4848C15.463 39.7818 16.5015 40.8725 17.7363 40.8725H22.6674C23.9023 40.8725 24.924 39.7818 24.924 38.4848V2.38878C24.924 1.09177 23.9023 0.00109863 22.6674 0.00109863H17.7363Z" fill="#82C1A0"/>
<path d="M24.5186 7.00277C23.3272 7.34434 22.6099 8.66241 22.9341 9.91384L30.795 40.2541C31.1193 41.5056 32.3732 42.2583 33.5645 41.9168L38.3215 40.5531C39.5129 40.2116 40.2463 38.8889 39.9221 37.6374L32.0612 7.29711C31.737 6.04568 30.4669 5.29727 29.2756 5.63885L24.5186 7.00277Z" fill="#828AD3"/>
<path d="M0.00112915 10.0259V11.2022V11.9222V14.2748V16.1709H12.8553V14.2748V11.9222V10.0262L0.00112915 10.0259Z" fill="#F46C6C"/>
<path d="M0.00112915 30.8127V32.0066V32.7267V35.079V36.9753H12.8553V35.079V32.7267V30.813L0.00112915 30.8127Z" fill="#F46C6C"/>
<path d="M15.4697 35.3777V36.5669V38.4945C15.4697 39.7915 16.4993 40.8729 17.7341 40.8729H22.6653C23.9001 40.8729 24.9297 39.7915 24.9297 38.4945V35.3777H15.4697Z" fill="#BBAE88"/>
<path d="M17.7341 0.00964355C16.4993 0.00964355 15.4697 1.09098 15.4697 2.38799V5.94592H24.9297V2.38799C24.9297 1.09098 23.9002 0.00964355 22.6653 0.00964355H17.7341Z" fill="#BBAE88"/>
<path d="M17.7348 0C16.5 0 15.4616 1.09067 15.4616 2.38768V3.56286V8.12918H12.8566V7.28867C12.8566 5.99166 11.8359 4.90099 10.6011 4.90099H2.27324C1.03837 4.90063 0 5.99139 0 7.28839V12.3979V13.8007V33.199V34.6065V38.4851C0 39.7821 1.03837 40.8728 2.27324 40.8728H10.6011C11.0183 40.8728 11.387 40.7162 11.7244 40.5013C12.0625 40.7171 12.438 40.8728 12.8566 40.8728H15.4616C15.8805 40.8728 16.2573 40.7128 16.5982 40.4961C16.6889 40.5501 16.7611 40.6372 16.8591 40.6821C17.1301 40.8044 17.4261 40.8728 17.7348 40.8728H22.666C23.9009 40.8728 24.926 39.7821 24.926 38.4851V37.765V17.5957L30.7948 40.2547C31.1191 41.5063 32.3721 42.2592 33.5634 41.9177L38.3222 40.5521C39.5134 40.2105 40.2474 38.8865 39.9232 37.635L32.0597 7.29745C31.7355 6.04601 30.4692 5.2977 29.2779 5.63919L24.926 6.88405V3.56286V2.38768C24.926 1.09067 23.9009 0 22.666 0H17.7348ZM17.7348 2.38768H22.666V3.56286H17.7348V2.38768ZM17.7348 5.95054H22.666V35.3776H17.7348V10.4982V5.95054ZM2.27324 7.28839H10.6011V10.0245H2.27324V7.28839ZM29.8705 7.92482L37.7295 38.2667L32.9708 39.6279L25.1118 9.29038L29.8705 7.92482ZM12.8566 10.4982H15.4616V38.4851H12.8566V10.4982ZM2.27324 12.3979H10.6011V13.8007H2.27324V12.3979ZM2.27324 16.1698H10.6011V30.8113H2.27324V16.1698ZM2.27324 33.199H10.6011V34.6065H2.27324V33.199ZM2.27324 36.9755H10.6011V38.4851H2.27324V36.9755ZM17.7348 37.7647H22.666V38.4846H17.7348V37.7647Z" fill="url(#paint0_linear_352_8662)"/>
<defs>
<linearGradient id="paint0_linear_352_8662" x1="0.141524" y1="0.338521" x2="42.2177" y2="39.7443" gradientUnits="userSpaceOnUse">
<stop/>
<stop offset="1"/>
</linearGradient>
</defs>
</svg>
