<svg width="40" height="42" viewBox="0 0 40 42" fill="none" xmlns="http://www.w3.org/2000/svg">
<path d="M12.8554 8.12976C11.6205 8.12976 10.5988 9.20287 10.5988 10.4999V38.4849C10.5988 39.7819 11.6205 40.8725 12.8554 40.8725H15.463C16.6979 40.8725 17.7363 39.7819 17.7363 38.4849V10.4999C17.7363 9.20287 16.6979 8.12976 15.463 8.12976H12.8554Z" fill="#DBA147"/>
<path d="M2.27441 4.89954C1.03952 4.89954 0.00109863 5.9902 0.00109863 7.28721V38.485C0.00109863 39.782 1.03952 40.8727 2.27441 40.8727H10.5987C11.8336 40.8727 12.8553 39.782 12.8553 38.485V7.28721C12.8553 5.9902 11.8336 4.89954 10.5987 4.89954H2.27441Z" fill="#CA7D73"/>
<path d="M17.7363 0.00115967C16.5016 0.00115967 15.463 1.09183 15.463 2.38884V38.4849C15.463 39.7819 16.5015 40.8726 17.7363 40.8726H22.6674C23.9023 40.8726 24.924 39.7819 24.924 38.4849V2.38884C24.924 1.09183 23.9023 0.00115967 22.6674 0.00115967H17.7363Z" fill="#82C1A0"/>
<path d="M24.5185 7.00283C23.3272 7.3444 22.6099 8.66247 22.9341 9.9139L30.795 40.2542C31.1192 41.5057 32.3732 42.2583 33.5645 41.9168L38.3215 40.5532C39.5128 40.2116 40.2463 38.889 39.9221 37.6374L32.0612 7.29717C31.737 6.04574 30.4669 5.29733 29.2756 5.63891L24.5185 7.00283Z" fill="#828AD3"/>
<path d="M0.00109863 10.0259V11.2022V11.9223V14.2749V16.171H12.8553V14.2749V11.9223V10.0262L0.00109863 10.0259Z" fill="#F46C6C"/>
<path d="M0.00109863 30.8127V32.0066V32.7267V35.079V36.9753H12.8553V35.079V32.7267V30.813L0.00109863 30.8127Z" fill="#F46C6C"/>
<path d="M15.4697 35.3777V36.5669V38.4945C15.4697 39.7915 16.4993 40.8729 17.7341 40.8729H22.6654C23.9001 40.8729 24.9298 39.7915 24.9298 38.4945V35.3777H15.4697Z" fill="#BBAE88"/>
<path d="M17.7341 0.00958252C16.4993 0.00958252 15.4697 1.09092 15.4697 2.38793V5.94586H24.9298V2.38793C24.9298 1.09092 23.9002 0.00958252 22.6654 0.00958252H17.7341Z" fill="#BBAE88"/>
<path d="M17.7348 0C16.5 0 15.4616 1.09067 15.4616 2.38768V3.56286V8.12918H12.8566V7.28867C12.8566 5.99166 11.8359 4.90099 10.6011 4.90099H2.27324C1.03837 4.90063 0 5.99139 0 7.28839V12.3979V13.8007V33.199V34.6065V38.4851C0 39.7821 1.03837 40.8728 2.27324 40.8728H10.6011C11.0183 40.8728 11.387 40.7162 11.7244 40.5014C12.0625 40.7171 12.438 40.8728 12.8566 40.8728H15.4616C15.8805 40.8728 16.2573 40.7128 16.5982 40.4961C16.6889 40.5501 16.7611 40.6372 16.8591 40.6821C17.1301 40.8044 17.4261 40.8728 17.7348 40.8728H22.666C23.9009 40.8728 24.926 39.7821 24.926 38.4851V37.765V17.5957L30.7948 40.2547C31.1191 41.5063 32.3721 42.2592 33.5634 41.9177L38.3222 40.5521C39.5134 40.2105 40.2474 38.8865 39.9232 37.635L32.0597 7.29745C31.7355 6.04601 30.4692 5.2977 29.2779 5.63919L24.926 6.88405V3.56286V2.38768C24.926 1.09067 23.9009 0 22.666 0H17.7348ZM17.7348 2.38768H22.666V3.56286H17.7348V2.38768ZM17.7348 5.95054H22.666V35.3776H17.7348V10.4982V5.95054ZM2.27324 7.28839H10.6011V10.0245H2.27324V7.28839ZM29.8705 7.92482L37.7295 38.2667L32.9708 39.6279L25.1118 9.29038L29.8705 7.92482ZM12.8566 10.4982H15.4616V38.4851H12.8566V10.4982ZM2.27324 12.3979H10.6011V13.8007H2.27324V12.3979ZM2.27324 16.1698H10.6011V30.8113H2.27324V16.1698ZM2.27324 33.199H10.6011V34.6065H2.27324V33.199ZM2.27324 36.9755H10.6011V38.4851H2.27324V36.9755ZM17.7348 37.7647H22.666V38.4846H17.7348V37.7647Z" fill="url(#paint0_linear_418_10594)"/>
<defs>
<linearGradient id="paint0_linear_418_10594" x1="0.141524" y1="0.338521" x2="42.2177" y2="39.7443" gradientUnits="userSpaceOnUse">
<stop/>
<stop offset="1"/>
</linearGradient>
</defs>
</svg>
